<svg id="Capa_1" data-name="Capa 1" xmlns="http://www.w3.org/2000/svg" viewBox="0 0 1329.5 1800"><defs><style>.cls-1{fill:#1d1d1b;}</style></defs><path class="cls-1" d="M1028.72,1772l13.47-227.81h-13.45q-80.68,127.38-180.45,191.61T629.76,1800q-207.36,0-326.13-162.86t-118.8-434.67q0-301,136.74-485.21,70.59-94.35,168.1-143.21a457.49,457.49,0,0,1,373.76-16.88q81.24,32,165.31,134.1h13.45l-13.47-165.82V0h222.2V1772Zm0-914.38q-77.29-83.15-152.9-124.73T726.29,691.27q-121,0-213.39,110.12T420.49,1180q0,234.82,72.81,332.57T677,1610.35q76.17,0,170.26-55.62t181.46-178.08Z"/></svg>