<svg xmlns="http://www.w3.org/2000/svg" viewBox="0 0 1053.77 1250.88"><defs><style>.cls-1{fill:#1d1d1b;}</style></defs><g id="Capa_2" data-name="Capa 2"><g id="Capa_3" data-name="Capa 3"><path class="cls-1" d="M1053.77,1176q-57.25,18.74-85.88,27.53a1204.07,1204.07,0,0,1-164.62,35.78,1154.52,1154.52,0,0,1-163.52,11.57q-336.94,0-488.35-173.59T0,638.12q0-263.4,154.71-450.76T564.88,0q216.9,0,349,131.81T1046.07,612.1v69.49H231.24Q244.44,911.75,370,999.82t299.5,88.09q175.08,0,384.29-83.69ZM237.84,518.63h577V487.69q0-174.51-76.53-249.61T545.06,163q-124.45,0-208.12,92.23T237.84,518.63Z"/></g></g></svg>