<svg xmlns="http://www.w3.org/2000/svg" viewBox="0 0 1129.9 1800"><defs><style>.cls-1{fill:#1d1d1b;}</style></defs><g id="Capa_2" data-name="Capa 2"><g id="Capa_3" data-name="Capa 3"><path class="cls-1" d="M78.42,1443.56c92.67,60.6,256.63,124.76,413.46,124.76,228.12,0,335-114.06,335-256.64,0-149.7-89.11-231.68-320.79-317.23C196,884,49.9,712.87,49.9,506.14,49.9,228.12,274.45,0,645.15,0,819.8,0,973.07,49.9,1069.31,106.93L990.89,335.05c-67.72-42.77-192.47-99.8-352.87-99.8-185.35,0-288.71,106.93-288.71,235.25,0,142.57,103.36,206.73,327.92,292.27,299.4,114.06,452.67,263.77,452.67,520.4,0,303-235.25,516.83-645.15,516.83C295.84,1800,121.19,1753.66,0,1682.37Z"/></g></g></svg>