<svg id="Capa_1" data-name="Capa 1" xmlns="http://www.w3.org/2000/svg" viewBox="0 0 1233.07 1800"><defs><style>.cls-1{fill:#1d1d1b;}</style></defs><path class="cls-1" d="M927.85,1772l13.46-227.81H927.87q-80.7,127.38-180.45,191.62t-218.53,64.24q-207.36,0-326.14-162.85T84,1202.53q0-301,136.73-485.21,70.59-94.34,168.1-143.2a457.45,457.45,0,0,1,373.76-16.89q81.24,32,165.32,134.1h13.44L927.85,525.51V.06H1150V1772Zm0-914.38Q850.54,774.49,775,732.91T625.42,691.33q-121,0-213.4,110.12t-92.4,378.64q0,234.81,72.8,332.57t183.71,97.75q76.17,0,170.25-55.62t181.47-178.08Z"/></svg>