<svg xmlns="http://www.w3.org/2000/svg" viewBox="0 0 1157.89 1250.88"><defs><style>.cls-1{fill:#1d1d1b;}</style></defs><g id="Capa_2" data-name="Capa 2"><g id="Capa_3" data-name="Capa 3"><path class="cls-1" d="M773.77,1084.83q-110.7,93-205.89,129.52t-189.3,36.53q-159.4,0-269-92.44T0,918.78Q0,737.25,163.28,620.46T604.41,503.67H739.46V400.4q0-72.18-12.73-113.3a146.57,146.57,0,0,0-44.84-68.85,198.92,198.92,0,0,0-84.68-43.31q-47.07-11.12-101.29-11.11-78.62,0-172.69,20T104.06,270.45V83.12q142.79-51,237.44-67.05T540.2,0q238,0,333.2,103.05,53.13,57.63,69.18,128t16.06,173.41V908.63q0,62.07,3.32,93.09T983,1056a89.22,89.22,0,0,0,35.42,29.37q22.14,10.55,50.92,10.52,21,0,68.63-11.07l19.93,130.62q-108.5,35.41-166.05,35.43-66.4,0-124-29.34T773.77,1084.83ZM739.46,943.14V639.83H674.14q-232.46,0-340.39,65.86T225.82,883.36q0,77.51,52.58,135T436.15,1076q71.94,0,147.78-33.21T739.46,943.14Z"/></g></g></svg>