<svg xmlns="http://www.w3.org/2000/svg" viewBox="0 0 1066.08 1800"><defs><style>.cls-1{fill:#1d1d1b;}</style></defs><g id="Capa_2" data-name="Capa 2"><g id="Capa_3" data-name="Capa 3"><path class="cls-1" d="M843.89,1772l13.47-227.81H843.91q-80.7,127.38-180.45,191.61T444.93,1800q-207.36,0-326.13-162.86T0,1202.47q0-301,136.73-485.21,70.61-94.35,168.1-143.21A457.52,457.52,0,0,1,678.6,557.17q81.24,32,165.31,134.1h13.45L843.89,525.45V0h222.19V1772Zm0-914.38Q766.6,774.43,691,732.84T541.46,691.27q-121,0-213.39,110.12T235.66,1180q0,234.82,72.8,332.57t183.71,97.76q76.17,0,170.26-55.62t181.46-178.08Z"/></g></g></svg>